<svg width="40" height="40" viewBox="0 0 40 40" fill="none" xmlns="http://www.w3.org/2000/svg">
<g clip-path="url(#clip0_274_3)">
<path d="M11.25 16.25H12.75L12 17L11.25 16.25Z" stroke="#429EBC" stroke-width="2" stroke-linecap="round" stroke-linejoin="round"/>
<path d="M16 14V14.5" stroke="#429EBC" stroke-width="2" stroke-linecap="round" stroke-linejoin="round"/>
<path d="M4.42001 11.2471C4.14014 12.3278 3.999 13.4397 4.00001 14.5561C4.00001 18.7281 7.58201 21.0001 12 21.0001C16.418 21.0001 20 18.7281 20 14.5561C19.995 13.4352 19.829 12.3208 19.507 11.2471" stroke="#429EBC" stroke-width="2" stroke-linecap="round" stroke-linejoin="round"/>
<path d="M8 14V14.5" stroke="#429EBC" stroke-width="2" stroke-linecap="round" stroke-linejoin="round"/>
<path d="M8.50096 8.49997C8.11696 9.54997 7.41796 10.528 6.15696 11C4.22596 11.722 2.58096 10.703 2.50096 9.99997C2.38796 9.00597 3.67796 3.46997 6.50096 2.99997C8.42396 2.67897 10.152 3.84497 10.152 5.23497C11.4167 4.91375 12.7435 4.92822 14.001 5.27697C14.001 3.88697 15.845 2.67897 17.768 2.99997C20.591 3.46997 21.881 9.00597 21.768 9.99997C21.688 10.703 20.043 11.722 18.112 11C16.851 10.528 16.257 9.54997 15.873 8.49997" stroke="#429EBC" stroke-width="2" stroke-linecap="round" stroke-linejoin="round"/>
<path d="M27.25 33.25H28.75L28 34L27.25 33.25Z" stroke="#429EBC" stroke-width="2" stroke-linecap="round" stroke-linejoin="round"/>
<path d="M32 31V31.5" stroke="#429EBC" stroke-width="2" stroke-linecap="round" stroke-linejoin="round"/>
<path d="M20.42 28.2471C20.1401 29.3278 19.999 30.4397 20 31.5561C20 35.7281 23.582 38.0001 28 38.0001C32.418 38.0001 36 35.7281 36 31.5561C35.995 30.4352 35.829 29.3208 35.507 28.2471" stroke="#429EBC" stroke-width="2" stroke-linecap="round" stroke-linejoin="round"/>
<path d="M24 31V31.5" stroke="#429EBC" stroke-width="2" stroke-linecap="round" stroke-linejoin="round"/>
<path d="M24.501 25.5C24.117 26.55 23.418 27.528 22.157 28C20.226 28.722 18.581 27.703 18.501 27C18.388 26.006 19.678 20.47 22.501 20C24.424 19.679 26.152 20.845 26.152 22.235C27.4167 21.9137 28.7435 21.9282 30.001 22.277C30.001 20.887 31.845 19.679 33.768 20C36.591 20.47 37.881 26.006 37.768 27C37.688 27.703 36.043 28.722 34.112 28C32.851 27.528 32.257 26.55 31.873 25.5" stroke="#429EBC" stroke-width="2" stroke-linecap="round" stroke-linejoin="round"/>
</g>
<defs>
<clipPath id="clip0_274_3">
<rect width="40" height="40" fill="white"/>
</clipPath>
</defs>
</svg>
