<svg width="40" height="40" viewBox="0 0 40 40" fill="none" xmlns="http://www.w3.org/2000/svg">
<g clip-path="url(#clip0_274_10)">
<path d="M9.375 33.542H10.625L10 34.167L9.375 33.542Z" stroke="#F88C18" stroke-width="2" stroke-linecap="round" stroke-linejoin="round"/>
<path d="M13.334 31.667V32.0837" stroke="#F88C18" stroke-width="2" stroke-linecap="round" stroke-linejoin="round"/>
<path d="M3.68399 29.3721C3.45077 30.2727 3.33315 31.1993 3.33399 32.1296C3.33399 35.6062 6.31899 37.4996 10.0007 37.4996C13.6823 37.4996 16.6673 35.6062 16.6673 32.1296C16.6632 31.1955 16.5248 30.2668 16.2565 29.3721" stroke="#F88C18" stroke-width="2" stroke-linecap="round" stroke-linejoin="round"/>
<path d="M6.66602 31.667V32.0837" stroke="#F88C18" stroke-width="2" stroke-linecap="round" stroke-linejoin="round"/>
<path d="M7.08381 27.0831C6.76381 27.9581 6.18131 28.7731 5.13047 29.1665C3.52131 29.7681 2.15047 28.919 2.08381 28.3331C1.98964 27.5048 3.06464 22.8915 5.41714 22.4998C7.01964 22.2323 8.45964 23.204 8.45964 24.3623C9.51363 24.0946 10.6192 24.1067 11.6671 24.3973C11.6671 23.239 13.2038 22.2323 14.8063 22.4998C17.1588 22.8915 18.2338 27.5048 18.1396 28.3331C18.073 28.919 16.7021 29.7681 15.093 29.1665C14.0421 28.7731 13.5471 27.9581 13.2271 27.0831" stroke="#F88C18" stroke-width="2" stroke-linecap="round" stroke-linejoin="round"/>
<path d="M29.375 33.542H30.625L30 34.167L29.375 33.542Z" stroke="#F88C18" stroke-width="2" stroke-linecap="round" stroke-linejoin="round"/>
<path d="M33.334 31.667V32.0837" stroke="#F88C18" stroke-width="2" stroke-linecap="round" stroke-linejoin="round"/>
<path d="M23.684 29.3721C23.4508 30.2727 23.3332 31.1993 23.334 32.1296C23.334 35.6062 26.319 37.4996 30.0007 37.4996C33.6823 37.4996 36.6673 35.6062 36.6673 32.1296C36.6632 31.1955 36.5248 30.2668 36.2565 29.3721" stroke="#F88C18" stroke-width="2" stroke-linecap="round" stroke-linejoin="round"/>
<path d="M26.666 31.667V32.0837" stroke="#F88C18" stroke-width="2" stroke-linecap="round" stroke-linejoin="round"/>
<path d="M27.0838 27.0831C26.7638 27.9581 26.1813 28.7731 25.1305 29.1665C23.5213 29.7681 22.1505 28.919 22.0838 28.3331C21.9896 27.5048 23.0646 22.8915 25.4171 22.4998C27.0196 22.2323 28.4596 23.204 28.4596 24.3623C29.5136 24.0946 30.6192 24.1067 31.6671 24.3973C31.6671 23.239 33.2038 22.2323 34.8063 22.4998C37.1588 22.8915 38.2338 27.5048 38.1396 28.3331C38.073 28.919 36.7021 29.7681 35.093 29.1665C34.0421 28.7731 33.5471 27.9581 33.2271 27.0831" stroke="#F88C18" stroke-width="2" stroke-linecap="round" stroke-linejoin="round"/>
<path d="M9.375 13.542H10.625L10 14.167L9.375 13.542Z" stroke="#F88C18" stroke-width="2" stroke-linecap="round" stroke-linejoin="round"/>
<path d="M13.334 11.667V12.0837" stroke="#F88C18" stroke-width="2" stroke-linecap="round" stroke-linejoin="round"/>
<path d="M3.68399 9.37207C3.45077 10.2727 3.33315 11.1993 3.33399 12.1296C3.33399 15.6062 6.31899 17.4996 10.0007 17.4996C13.6823 17.4996 16.6673 15.6062 16.6673 12.1296C16.6632 11.1955 16.5248 10.2668 16.2565 9.37207" stroke="#F88C18" stroke-width="2" stroke-linecap="round" stroke-linejoin="round"/>
<path d="M6.66602 11.667V12.0837" stroke="#F88C18" stroke-width="2" stroke-linecap="round" stroke-linejoin="round"/>
<path d="M7.08381 7.08314C6.76381 7.95814 6.18131 8.77314 5.13047 9.16648C3.52131 9.76814 2.15047 8.91898 2.08381 8.33314C1.98964 7.50481 3.06464 2.89148 5.41714 2.49981C7.01964 2.23231 8.45964 3.20398 8.45964 4.36231C9.51363 4.09463 10.6192 4.10669 11.6671 4.39731C11.6671 3.23898 13.2038 2.23231 14.8063 2.49981C17.1588 2.89148 18.2338 7.50481 18.1396 8.33314C18.073 8.91898 16.7021 9.76814 15.093 9.16648C14.0421 8.77314 13.5471 7.95814 13.2271 7.08314" stroke="#F88C18" stroke-width="2" stroke-linecap="round" stroke-linejoin="round"/>
<path d="M29.375 13.542H30.625L30 14.167L29.375 13.542Z" stroke="#F88C18" stroke-width="2" stroke-linecap="round" stroke-linejoin="round"/>
<path d="M33.334 11.667V12.0837" stroke="#F88C18" stroke-width="2" stroke-linecap="round" stroke-linejoin="round"/>
<path d="M23.684 9.37207C23.4508 10.2727 23.3332 11.1993 23.334 12.1296C23.334 15.6062 26.319 17.4996 30.0007 17.4996C33.6823 17.4996 36.6673 15.6062 36.6673 12.1296C36.6632 11.1955 36.5248 10.2668 36.2565 9.37207" stroke="#F88C18" stroke-width="2" stroke-linecap="round" stroke-linejoin="round"/>
<path d="M26.666 11.667V12.0837" stroke="#F88C18" stroke-width="2" stroke-linecap="round" stroke-linejoin="round"/>
<path d="M27.0838 7.08314C26.7638 7.95814 26.1813 8.77314 25.1305 9.16648C23.5213 9.76814 22.1505 8.91898 22.0838 8.33314C21.9896 7.50481 23.0646 2.89148 25.4171 2.49981C27.0196 2.23231 28.4596 3.20398 28.4596 4.36231C29.5136 4.09463 30.6192 4.10669 31.6671 4.39731C31.6671 3.23898 33.2038 2.23231 34.8063 2.49981C37.1588 2.89148 38.2338 7.50481 38.1396 8.33314C38.073 8.91898 36.7021 9.76814 35.093 9.16648C34.0421 8.77314 33.5471 7.95814 33.2271 7.08314" stroke="#F88C18" stroke-width="2" stroke-linecap="round" stroke-linejoin="round"/>
</g>
<defs>
<clipPath id="clip0_274_10">
<rect width="40" height="40" fill="white"/>
</clipPath>
</defs>
</svg>
