<svg width="40" height="40" viewBox="0 0 40 40" fill="none" xmlns="http://www.w3.org/2000/svg">
<path d="M19.0938 14.8018H19.9063L19.5 15.208L19.0938 14.8018Z" stroke="#429EBC" stroke-linecap="round" stroke-linejoin="round"/>
<path d="M21.666 13.583V13.8538" stroke="#429EBC" stroke-linecap="round" stroke-linejoin="round"/>
<path d="M15.3935 12.0918C15.2419 12.6772 15.1655 13.2795 15.166 13.8842C15.166 16.144 17.1063 17.3747 19.4994 17.3747C21.8924 17.3747 23.8327 16.144 23.8327 13.8842C23.83 13.277 23.74 12.6734 23.5656 12.0918" stroke="#429EBC" stroke-linecap="round" stroke-linejoin="round"/>
<path d="M17.334 13.583V13.8538" stroke="#429EBC" stroke-linecap="round" stroke-linejoin="round"/>
<path d="M17.6033 10.6039C17.3953 11.1727 17.0167 11.7024 16.3336 11.9581C15.2877 12.3492 14.3966 11.7972 14.3533 11.4164C14.2921 10.878 14.9908 7.87936 16.52 7.62478C17.5616 7.4509 18.4976 8.08249 18.4976 8.8354C19.1827 8.66141 19.9013 8.66925 20.5825 8.85815C20.5825 8.10524 21.5813 7.4509 22.6229 7.62478C24.1521 7.87936 24.8508 10.878 24.7896 11.4164C24.7463 11.7972 23.8552 12.3492 22.8093 11.9581C22.1262 11.7024 21.8045 11.1727 21.5965 10.6039" stroke="#429EBC" stroke-linecap="round" stroke-linejoin="round"/>
<path d="M32.5625 28.4795H33.4375L33 28.917L32.5625 28.4795Z" stroke="#429EBC" stroke-linecap="round" stroke-linejoin="round"/>
<path d="M35.334 27.167V27.4587" stroke="#429EBC" stroke-linecap="round" stroke-linejoin="round"/>
<path d="M28.579 25.5605C28.4157 26.191 28.3334 26.8396 28.334 27.4908C28.334 29.9245 30.4235 31.2498 33.0007 31.2498C35.5778 31.2498 37.6673 29.9245 37.6673 27.4908C37.6644 26.8369 37.5676 26.1869 37.3797 25.5605" stroke="#429EBC" stroke-linecap="round" stroke-linejoin="round"/>
<path d="M30.666 27.167V27.4587" stroke="#429EBC" stroke-linecap="round" stroke-linejoin="round"/>
<path d="M30.9591 23.9584C30.7351 24.5709 30.3273 25.1414 29.5917 25.4167C28.4653 25.8379 27.5057 25.2435 27.4591 24.8334C27.3931 24.2536 28.1456 21.0242 29.7924 20.7501C30.9141 20.5628 31.9221 21.243 31.9221 22.0538C32.6599 21.8664 33.4339 21.8749 34.1674 22.0783C34.1674 21.2675 35.2431 20.5628 36.3648 20.7501C38.0116 21.0242 38.7641 24.2536 38.6981 24.8334C38.6515 25.2435 37.6919 25.8379 36.5655 25.4167C35.8299 25.1414 35.4834 24.5709 35.2594 23.9584" stroke="#429EBC" stroke-linecap="round" stroke-linejoin="round"/>
<path d="M6.5625 28.4795H7.4375L7 28.917L6.5625 28.4795Z" stroke="#429EBC" stroke-linecap="round" stroke-linejoin="round"/>
<path d="M9.33398 27.167V27.4587" stroke="#429EBC" stroke-linecap="round" stroke-linejoin="round"/>
<path d="M2.57899 25.5605C2.41573 26.191 2.3334 26.8396 2.33399 27.4908C2.33399 29.9245 4.42349 31.2498 7.00065 31.2498C9.57782 31.2498 11.6673 29.9245 11.6673 27.4908C11.6644 26.8369 11.5676 26.1869 11.3797 25.5605" stroke="#429EBC" stroke-linecap="round" stroke-linejoin="round"/>
<path d="M4.66602 27.167V27.4587" stroke="#429EBC" stroke-linecap="round" stroke-linejoin="round"/>
<path d="M4.95905 23.9584C4.73505 24.5709 4.3273 25.1414 3.59172 25.4167C2.4653 25.8379 1.50572 25.2435 1.45905 24.8334C1.39314 24.2536 2.14564 21.0242 3.79239 20.7501C4.91414 20.5628 5.92214 21.243 5.92214 22.0538C6.65993 21.8664 7.43386 21.8749 8.16739 22.0783C8.16739 21.2675 9.24306 20.5628 10.3648 20.7501C12.0116 21.0242 12.7641 24.2536 12.6981 24.8334C12.6515 25.2435 11.6919 25.8379 10.5655 25.4167C9.82989 25.1414 9.48339 24.5709 9.25939 23.9584" stroke="#429EBC" stroke-linecap="round" stroke-linejoin="round"/>
<path d="M19.5625 28.4795H20.4375L20 28.917L19.5625 28.4795Z" stroke="#429EBC" stroke-linecap="round" stroke-linejoin="round"/>
<path d="M22.334 27.167V27.4587" stroke="#429EBC" stroke-linecap="round" stroke-linejoin="round"/>
<path d="M15.579 25.5605C15.4157 26.191 15.3334 26.8396 15.334 27.4908C15.334 29.9245 17.4235 31.2498 20.0007 31.2498C22.5778 31.2498 24.6673 29.9245 24.6673 27.4908C24.6644 26.8369 24.5676 26.1869 24.3797 25.5605" stroke="#429EBC" stroke-linecap="round" stroke-linejoin="round"/>
<path d="M17.666 27.167V27.4587" stroke="#429EBC" stroke-linecap="round" stroke-linejoin="round"/>
<path d="M17.9591 23.9584C17.7351 24.5709 17.3273 25.1414 16.5917 25.4167C15.4653 25.8379 14.5057 25.2435 14.4591 24.8334C14.3931 24.2536 15.1456 21.0242 16.7924 20.7501C17.9141 20.5628 18.9221 21.243 18.9221 22.0538C19.6599 21.8664 20.4339 21.8749 21.1674 22.0783C21.1674 21.2675 22.2431 20.5628 23.3648 20.7501C25.0116 21.0242 25.7641 24.2536 25.6981 24.8334C25.6515 25.2435 24.6919 25.8379 23.5655 25.4167C22.8299 25.1414 22.4834 24.5709 22.2594 23.9584" stroke="#429EBC" stroke-linecap="round" stroke-linejoin="round"/>
<path d="M6.5625 15.4795H7.4375L7 15.917L6.5625 15.4795Z" stroke="#429EBC" stroke-linecap="round" stroke-linejoin="round"/>
<path d="M9.33398 14.167V14.4587" stroke="#429EBC" stroke-linecap="round" stroke-linejoin="round"/>
<path d="M2.57899 12.5605C2.41573 13.191 2.3334 13.8396 2.33399 14.4908C2.33399 16.9245 4.42349 18.2498 7.00065 18.2498C9.57782 18.2498 11.6673 16.9245 11.6673 14.4908C11.6644 13.8369 11.5676 13.1869 11.3797 12.5605" stroke="#429EBC" stroke-linecap="round" stroke-linejoin="round"/>
<path d="M4.66602 14.167V14.4587" stroke="#429EBC" stroke-linecap="round" stroke-linejoin="round"/>
<path d="M4.95905 10.9584C4.73505 11.5709 4.3273 12.1414 3.59172 12.4167C2.4653 12.8379 1.50572 12.2435 1.45905 11.8334C1.39314 11.2536 2.14564 8.02423 3.79239 7.75006C4.91414 7.56281 5.92214 8.24298 5.92214 9.05381C6.65993 8.86643 7.43386 8.87488 8.16739 9.07831C8.16739 8.26748 9.24306 7.56281 10.3648 7.75006C12.0116 8.02423 12.7641 11.2536 12.6981 11.8334C12.6515 12.2435 11.6919 12.8379 10.5655 12.4167C9.82989 12.1414 9.48339 11.5709 9.25939 10.9584" stroke="#429EBC" stroke-linecap="round" stroke-linejoin="round"/>
<path d="M32.5625 15.4795H33.4375L33 15.917L32.5625 15.4795Z" stroke="#429EBC" stroke-linecap="round" stroke-linejoin="round"/>
<path d="M35.334 14.167V14.4587" stroke="#429EBC" stroke-linecap="round" stroke-linejoin="round"/>
<path d="M28.579 12.5605C28.4157 13.191 28.3334 13.8396 28.334 14.4908C28.334 16.9245 30.4235 18.2498 33.0007 18.2498C35.5778 18.2498 37.6673 16.9245 37.6673 14.4908C37.6644 13.8369 37.5676 13.1869 37.3797 12.5605" stroke="#429EBC" stroke-linecap="round" stroke-linejoin="round"/>
<path d="M30.666 14.167V14.4587" stroke="#429EBC" stroke-linecap="round" stroke-linejoin="round"/>
<path d="M30.9591 10.9584C30.7351 11.5709 30.3273 12.1414 29.5917 12.4167C28.4653 12.8379 27.5057 12.2435 27.4591 11.8334C27.3931 11.2536 28.1456 8.02423 29.7924 7.75006C30.9141 7.56281 31.9221 8.24298 31.9221 9.05381C32.6599 8.86643 33.4339 8.87488 34.1674 9.07831C34.1674 8.26748 35.2431 7.56281 36.3648 7.75006C38.0116 8.02423 38.7641 11.2536 38.6981 11.8334C38.6515 12.2435 37.6919 12.8379 36.5655 12.4167C35.8299 12.1414 35.4834 11.5709 35.2594 10.9584" stroke="#429EBC" stroke-linecap="round" stroke-linejoin="round"/>
</svg>
