<svg width="24" height="24" viewBox="0 0 24 24" fill="none" xmlns="http://www.w3.org/2000/svg">
<path d="M11 10V14H15" stroke="#F88C18" stroke-width="2" stroke-linecap="round" stroke-linejoin="round"/>
<path d="M11 14L12.535 12.395C13.109 11.8433 13.8065 11.4367 14.5694 11.2089C15.3323 10.9812 16.1386 10.9389 16.9211 11.0856C17.7037 11.2324 18.4399 11.5638 19.0684 12.0525C19.697 12.5411 20.1998 13.1728 20.535 13.895" stroke="#F88C18" stroke-width="2" stroke-linecap="round" stroke-linejoin="round"/>
<path d="M16 2V6" stroke="#F88C18" stroke-width="2" stroke-linecap="round" stroke-linejoin="round"/>
<path d="M20.9998 18L19.4648 19.605C18.8908 20.1567 18.1933 20.5633 17.4304 20.7911C16.6675 21.0188 15.8612 21.0611 15.0787 20.9144C14.2962 20.7676 13.56 20.4362 12.9314 19.9475C12.3028 19.4589 11.8 18.8272 11.4648 18.105" stroke="#F88C18" stroke-width="2" stroke-linecap="round" stroke-linejoin="round"/>
<path d="M21 22V18H17" stroke="#F88C18" stroke-width="2" stroke-linecap="round" stroke-linejoin="round"/>
<path d="M21 8.5V6C21 5.46957 20.7893 4.96086 20.4142 4.58579C20.0391 4.21071 19.5304 4 19 4H5C4.46957 4 3.96086 4.21071 3.58579 4.58579C3.21071 4.96086 3 5.46957 3 6V20C3 20.5304 3.21071 21.0391 3.58579 21.4142C3.96086 21.7893 4.46957 22 5 22H9.3" stroke="#F88C18" stroke-width="2" stroke-linecap="round" stroke-linejoin="round"/>
<path d="M3 10H7" stroke="#F88C18" stroke-width="2" stroke-linecap="round" stroke-linejoin="round"/>
<path d="M8 2V6" stroke="#F88C18" stroke-width="2" stroke-linecap="round" stroke-linejoin="round"/>
</svg>
