<svg width="24" height="24" viewBox="0 0 24 24" fill="none" xmlns="http://www.w3.org/2000/svg">
<path fill-rule="evenodd" clip-rule="evenodd" d="M14.6484 8.45151C15.6964 9.35104 16.7427 10.1949 17.9071 11.887C18.5981 12.8907 18.7739 14.4959 19.0146 15.9851C19.1239 16.6593 19.2491 17.3057 19.4685 17.8425C19.655 18.2986 19.9072 18.672 20.3087 18.8704C22.6881 20.0464 22.4474 23 20.2723 23H4.72209C4.14212 23 3.71225 22.789 3.42537 22.4748C3.13584 22.1579 2.9875 21.7252 3.00083 21.2503C3.02392 20.4155 3.56305 19.4253 4.68569 18.8706C5.08714 18.6722 5.3385 18.2987 5.5259 17.8427C5.74528 17.3067 5.8705 16.6595 5.97975 15.9853C6.22045 14.496 6.39719 12.8908 7.0873 11.8872C8.2517 10.195 9.29797 9.35118 10.346 8.45167C10.3442 8.43731 10.3442 8.42295 10.3442 8.40858V6.75229C10.3442 6.67419 10.3638 6.60058 10.3984 6.53684C9.44095 5.06548 9.26508 4.53851 7.99326 3.70182C7.86803 3.61923 7.79253 3.47918 7.79164 3.32837C7.79075 3.17755 7.86447 3.03661 7.98882 2.95223C7.98882 2.95223 9.46318 1.94409 11.6686 2.00244C12.4146 2.02219 13.238 2.31396 14.1306 2.5734C14.9264 2.80501 15.7835 3.00878 16.6983 2.88041C16.8804 2.85527 17.058 2.94504 17.1477 3.10753C17.2365 3.27002 17.2179 3.47021 17.0997 3.61294C16.137 4.77819 15.2959 5.15883 14.5568 6.47761C14.6154 6.55392 14.6501 6.64908 14.6501 6.75231V8.4086C14.6501 8.42297 14.6493 8.43715 14.6484 8.45151ZM12.7885 8.85638H12.5185C12.2441 9.40578 11.5806 10.7667 11.2724 11.6608C11.0477 12.3117 10.9474 13.3109 10.7902 14.1564C10.6676 14.8145 10.5006 15.3872 10.2635 15.7113C10.1178 15.9106 9.83981 15.9528 9.64263 15.8064C9.44546 15.6592 9.40371 15.3782 9.54849 15.1789C9.72789 14.9329 9.82381 14.4895 9.91708 13.9903C10.0823 13.1007 10.1969 12.0494 10.4331 11.3654C10.6933 10.6113 11.1952 9.53849 11.5273 8.85621H11.2422C10.1364 9.82305 9.04133 10.6176 7.81573 12.3986C7.45246 12.9265 7.26952 13.6491 7.12741 14.423C6.97198 15.2686 6.87162 16.1726 6.69932 16.9843C6.43732 18.2124 5.98346 19.2277 5.07575 19.6757C4.30837 20.0545 3.90426 20.7036 3.88826 21.2745C3.88204 21.5016 3.93977 21.7135 4.07832 21.8652C4.21866 22.0196 4.43803 22.1013 4.72224 22.1013H20.2724C20.5566 22.1013 20.7751 22.0196 20.9163 21.8652C21.0549 21.7135 21.1126 21.5016 21.1064 21.2745C21.0904 20.7044 20.6863 20.0554 19.9189 19.6757C19.0121 19.2277 18.5573 18.2124 18.2953 16.9843C18.1221 16.1728 18.0227 15.2687 17.8672 14.423C17.7251 13.65 17.5422 12.9265 17.1789 12.3986C15.9692 10.6418 14.8875 9.84465 13.7968 8.89482C14.2817 9.93079 15.0935 11.9498 15.1379 13.9239C15.1432 14.1717 14.9487 14.3773 14.7045 14.3826C14.4593 14.388 14.2559 14.1914 14.2506 13.9446C14.2027 11.7801 13.1511 9.55828 12.7896 8.85619L12.7885 8.85638ZM13.0559 7.95867H13.762V7.20009H11.2316V7.95867H12.2414H12.2521H13.0496H13.0559ZM11.3115 6.30238H13.6412C14.2638 5.07969 14.9459 4.56708 15.7168 3.80036C15.0782 3.75368 14.4663 3.60376 13.8845 3.435C13.0718 3.19801 12.3249 2.91612 11.6454 2.89817C10.5352 2.86945 9.63906 3.14863 9.0875 3.38564C10.0147 4.12176 10.2839 4.76454 11.3115 6.30316L11.3115 6.30238Z" fill="#429EBC"/>
</svg>
