<svg width="40" height="40" viewBox="0 0 40 40" fill="none" xmlns="http://www.w3.org/2000/svg">
<path d="M19.0625 25.3125H20.9375L20 26.25L19.0625 25.3125Z" stroke="#429EBC" stroke-width="2" stroke-linecap="round" stroke-linejoin="round"/>
<path d="M25 22.5V23.125" stroke="#429EBC" stroke-width="2" stroke-linecap="round" stroke-linejoin="round"/>
<path d="M10.525 19.0586C10.1752 20.4095 9.99875 21.7994 10 23.1948C10 28.4098 14.4775 31.2498 20 31.2498C25.5225 31.2498 30 28.4098 30 23.1948C29.9938 21.7937 29.7862 20.4007 29.3838 19.0586" stroke="#429EBC" stroke-width="2" stroke-linecap="round" stroke-linejoin="round"/>
<path d="M15 22.5V23.125" stroke="#429EBC" stroke-width="2" stroke-linecap="round" stroke-linejoin="round"/>
<path d="M15.6257 15.6247C15.1457 16.9372 14.272 18.1597 12.6957 18.7497C10.282 19.6522 8.22571 18.3785 8.12571 17.4997C7.98446 16.2572 9.59696 9.33722 13.1257 8.74972C15.5295 8.34847 17.6895 9.80597 17.6895 11.5435C19.2704 11.1419 20.9289 11.16 22.5007 11.596C22.5007 9.85847 24.8057 8.34847 27.2095 8.74972C30.7382 9.33722 32.3507 16.2572 32.2095 17.4997C32.1095 18.3785 30.0532 19.6522 27.6395 18.7497C26.0632 18.1597 25.3207 16.9372 24.8407 15.6247" stroke="#429EBC" stroke-width="2" stroke-linecap="round" stroke-linejoin="round"/>
</svg>
